{
    "asset" : {
        "generator" : "Khronos glTF Blender I/O v1.6.16",
        "version" : "2.0"
    },
    "scene" : 0,
    "scenes" : [
        {
            "name" : "Scene",
            "nodes" : [
                0
            ]
        }
    ],
    "nodes" : [
        {
            "mesh" : 0,
            "name" : "weapon_1_2",
            "rotation" : [
                0.7071068286895752,
                0,
                0,
                0.7071067094802856
            ]
        }
    ],
    "materials" : [
        {
            "doubleSided" : true,
            "emissiveFactor" : [
                1,
                1,
                1
            ],
            "emissiveTexture" : {
                "index" : 0
            },
            "name" : "Default OBJ",
            "pbrMetallicRoughness" : {
                "baseColorTexture" : {
                    "index" : 1
                },
                "metallicFactor" : 0,
                "roughnessFactor" : 0.5
            }
        }
    ],
    "meshes" : [
        {
            "name" : "weapon_1_2",
            "primitives" : [
                {
                    "attributes" : {
                        "POSITION" : 0,
                        "NORMAL" : 1,
                        "TEXCOORD_0" : 2
                    },
                    "indices" : 3,
                    "material" : 0
                }
            ]
        }
    ],
    "textures" : [
        {
            "sampler" : 0,
            "source" : 0
        },
        {
            "sampler" : 0,
            "source" : 1
        }
    ],
    "images" : [
        {
            "bufferView" : 4,
            "mimeType" : "image/png",
            "name" : "weapon_1_2_e"
        },
        {
            "bufferView" : 5,
            "mimeType" : "image/png",
            "name" : "weapon_1_2"
        }
    ],
    "accessors" : [
        {
            "bufferView" : 0,
            "componentType" : 5126,
            "count" : 11730,
            "max" : [
                6.552614212036133,
                0.3954240083694458,
                1.2027909755706787
            ],
            "min" : [
                -2.925826072692871,
                -0.3954240083694458,
                -0.7779639959335327
            ],
            "type" : "VEC3"
        },
        {
            "bufferView" : 1,
            "componentType" : 5126,
            "count" : 11730,
            "type" : "VEC3"
        },
        {
            "bufferView" : 2,
            "componentType" : 5126,
            "count" : 11730,
            "type" : "VEC2"
        },
        {
            "bufferView" : 3,
            "componentType" : 5123,
            "count" : 41997,
            "type" : "SCALAR"
        }
    ],
    "bufferViews" : [
        {
            "buffer" : 0,
            "byteLength" : 140760,
            "byteOffset" : 0
        },
        {
            "buffer" : 0,
            "byteLength" : 140760,
            "byteOffset" : 140760
        },
        {
            "buffer" : 0,
            "byteLength" : 93840,
            "byteOffset" : 281520
        },
        {
            "buffer" : 0,
            "byteLength" : 83994,
            "byteOffset" : 375360
        },
        {
            "buffer" : 0,
            "byteLength" : 27634,
            "byteOffset" : 459356
        },
        {
            "buffer" : 0,
            "byteLength" : 268132,
            "byteOffset" : 486992
        }
    ],
    "samplers" : [
        {
            "magFilter" : 9729,
            "minFilter" : 9987
        }
    ],
    "buffers" : [
        {
            "byteLength" : 755124,
            "uri" : "data:application/octet-stream;base64,"
        }
    ]
}
